<?xml version="1.0" encoding="UTF-8"?>
<svg width="32px" height="23px" viewBox="0 0 32 23" version="1.1" xmlns="http://www.w3.org/2000/svg" xmlns:xlink="http://www.w3.org/1999/xlink">
    <!-- Generator: Sketch 50.2 (55047) - http://www.bohemiancoding.com/sketch -->
    <title>sc_bco copy 2</title>
    <desc>Created with Sketch.</desc>
    <defs></defs>
    <g id="Estabelecimento-Android" stroke="none" stroke-width="1" fill="none" fill-rule="evenodd">
        <g id="sc_bco-copy-2" fill="#4EAF6C">
            <path d="M0.0353460373,0.0850830979 L3.42316899,0.164310274 C3.84284338,0.164310274 3.91518123,0.174644254 4.16003914,0.402278858 C6.20530591,2.30373109 7.34548832,4.89899522 8.60221505,7.46210919 L11.4578381,12.300708 C12.4094253,13.093841 15.7409855,12.9353866 18.9933185,12.8558724 L23.595384,12.8558724 C24.5458231,12.8558724 24.806469,13.0301148 25.672801,12.1106776 C27.1112335,10.5818228 28.3349489,8.87384561 29.4639362,6.98617202 C29.8305054,6.42612774 29.6473643,5.98808184 29.0672262,5.6375877 L22.9592702,5.24087771 C21.0027034,5.13524147 18.1206713,5.16165053 17.0895698,4.92368195 C17.0766524,4.89382823 16.7359181,4.58237357 16.8596388,4.3940655 L23.3559802,4.28929043 L31.1297163,4.52725901 C31.8129071,4.85306642 32.0149938,5.47310519 31.9228492,6.27226627 C29.729462,10.3582069 28.0384211,13.1544096 26.5287989,14.5216525 C26.2908304,14.7596211 25.2261434,14.8391353 24.7837917,14.8388482 C19.7726728,14.8351165 12.5825195,14.7090994 11.9337752,14.2044567 C11.4641533,14.2357457 10.711208,13.6748403 10.1485803,12.6270896 C9.11977519,10.7115716 8.01461349,8.14673533 7.3328579,6.74820344 C6.2276962,4.21149853 5.19200181,2.2844984 4.26825886,1.34554154 C3.95967475,1.0320775 3.55176962,0.867594991 3.09650041,0.864150331 L0.432056028,0.878216025 C0.19839327,0.76626458 -0.0438811389,0.402278858 0.0353460373,0.0850830979 Z M16.4372948,18.9494182 C16.0583822,19.1225124 15.6039742,18.5977759 16.0583822,18.3290924 C16.7840572,17.8993711 17.4861937,17.6154737 18.3373117,17.2391446 C19.0248084,16.9222359 19.6296333,16.6656087 20.3418167,16.3461165 C21.2144639,16.1873751 21.6685849,16.207756 22.2237492,16.5252389 C22.781497,16.776699 22.9459795,17.4113776 22.2134152,18.0632795 C21.9065534,18.2705332 21.6108868,18.3557885 21.3729182,18.4086066 C21.6108868,18.0118966 21.465637,17.6677177 21.3729182,17.4567323 C20.4210439,17.4567323 19.9235776,17.5563404 19.2096718,17.794309 C18.2577975,18.1910189 17.3891691,18.5524212 16.4372948,18.9494182 Z M22.4895621,21.0653005 C21.9748725,20.467365 21.8847373,19.6716486 22.3859353,18.90636 C22.4031586,18.880238 22.5868738,18.6755678 22.6207462,18.6643726 C22.6216074,18.6637985 22.447078,18.8446432 22.4304288,18.8653111 C22.3394324,18.9792719 22.2452783,19.2270004 22.2452783,19.6776767 C22.2452783,20.5503239 23.5941497,21.2639426 24.3869956,20.8675196 C24.6490768,20.7363355 24.9542162,20.2856592 25.0216741,19.9156453 C25.0808075,19.5906991 24.9255107,18.9715215 24.8632198,18.8842567 C24.0818561,17.7957442 23.0375501,18.3196196 22.6356731,18.6503069 C22.6330896,18.6526034 22.6310802,18.6534645 22.6310802,18.6534645 C23.3111135,18.0535196 24.4613428,17.9915157 25.1011884,18.7258024 C25.7298388,19.4477457 25.7065873,20.6381627 24.942447,21.1847154 C24.1783066,21.7312681 23.141464,21.8225516 22.4895621,21.0653005 Z M12.2660127,21.8726427 C11.6459739,21.1524217 11.5374671,20.1936581 12.1408567,19.2724986 C12.1618117,19.2409226 12.3834181,18.9943423 12.42418,18.9808507 C12.4250411,18.9802766 12.2149169,19.1981514 12.1951101,19.2231251 C12.085168,19.3603374 11.9720684,19.6585876 11.9720684,20.2014085 C11.9720684,21.2523168 13.5962255,22.1120465 14.5515445,21.6341 C14.8673049,21.4762197 15.2344483,20.9336858 15.3159719,20.4878894 C15.3868745,20.0966335 15.1997146,19.3508646 15.1245062,19.2460895 C14.18354,17.9348224 12.9262391,18.5654822 12.4419774,18.9639145 C12.4388198,18.966498 12.4365233,18.9676462 12.4365233,18.9676462 C13.2554912,18.2451288 14.6408186,18.1704945 15.4112741,19.0549109 C16.1685252,19.9244005 16.1406809,21.3579531 15.2203826,22.0161702 C14.3000843,22.6746743 13.051108,22.7843293 12.2660127,21.8726427 Z" id="Combined-Shape"></path>
        </g>
    </g>
</svg>